<?xml version="1.0" encoding="utf-8"?>
<!-- Generator: Adobe Illustrator 15.0.0, SVG Export Plug-In . SVG Version: 6.00 Build 0)  -->
<!DOCTYPE svg PUBLIC "-//W3C//DTD SVG 1.1//EN" "http://www.w3.org/Graphics/SVG/1.1/DTD/svg11.dtd">
<svg version="1.1" id="Layer_1" xmlns="http://www.w3.org/2000/svg" xmlns:xlink="http://www.w3.org/1999/xlink" x="0px" y="0px"
	 width="500px" height="150.816px" viewBox="0 0 500 150.816" enable-background="new 0 0 500 150.816" xml:space="preserve">
<g>
	<rect x="491.774" fill="#757C82" width="1.757" height="150.778"/>
	<rect x="485.302" fill="#757C82" width="1.756" height="150.778"/>
	<rect x="478.833" fill="#757C82" width="1.756" height="150.778"/>
	<rect x="459.419" fill="#757C82" width="1.756" height="150.778"/>
	<rect x="452.95" fill="#757C82" width="1.756" height="150.778"/>
	<rect x="446.478" fill="#757C82" width="1.757" height="150.778"/>
	<rect x="433.538" fill="#757C82" width="1.756" height="150.778"/>
	<rect x="427.065" fill="#757C82" width="1.756" height="150.778"/>
	<rect x="420.595" fill="#757C82" width="1.757" height="150.778"/>
	<rect x="407.653" fill="#757C82" width="1.756" height="150.778"/>
	<rect x="401.184" fill="#757C82" width="1.757" height="150.778"/>
	<rect x="394.713" fill="#757C82" width="1.756" height="150.778"/>
	<rect x="368.829" fill="#757C82" width="1.757" height="150.778"/>
	<rect x="362.358" fill="#757C82" width="1.756" height="150.778"/>
	<rect x="355.888" fill="#757C82" width="1.756" height="150.778"/>
	<rect x="336.476" y="126.675" fill="#757C82" width="1.756" height="24.104"/>
	<rect x="330.006" y="126.675" fill="#757C82" width="1.757" height="24.104"/>
	<rect x="323.533" y="126.675" fill="#757C82" width="1.757" height="24.104"/>
	<rect x="317.063" fill="#757C82" width="1.757" height="150.778"/>
	<rect x="310.593" fill="#757C82" width="1.756" height="150.778"/>
	<rect x="304.121" fill="#757C82" width="1.757" height="150.778"/>
	<rect x="284.711" fill="#757C82" width="1.757" height="150.778"/>
	<rect x="278.237" fill="#757C82" width="1.758" height="150.778"/>
	<rect x="271.77" fill="#757C82" width="1.757" height="150.778"/>
	<rect x="252.357" fill="#757C82" width="1.757" height="150.778"/>
	<rect x="245.886" fill="#757C82" width="1.756" height="150.778"/>
	<rect x="239.417" fill="#757C82" width="1.755" height="150.778"/>
	<rect x="142.354" fill="#757C82" width="1.755" height="150.778"/>
	<rect x="135.886" fill="#757C82" width="1.754" height="150.778"/>
	<rect x="129.415" fill="#757C82" width="1.754" height="150.778"/>
	<rect x="71.179" y="126.675" fill="#757C82" width="1.754" height="24.104"/>
	<rect x="58.237" fill="#757C82" width="1.754" height="150.778"/>
	<rect x="51.765" fill="#757C82" width="1.754" height="150.778"/>
	<rect x="45.295" fill="#757C82" width="1.754" height="150.778"/>
	<rect x="12.942" fill="#757C82" width="1.754" height="150.778"/>
	<rect x="6.47" fill="#757C82" width="1.754" height="150.778"/>
	<rect fill="#757C82" width="1.754" height="150.778"/>
	<rect x="498.245" fill="#757C82" width="1.755" height="88.403"/>
	<rect x="472.361" fill="#757C82" width="1.755" height="88.403"/>
	<rect x="465.89" fill="#757C82" width="1.758" height="88.403"/>
	<rect x="388.243" fill="#757C82" width="1.757" height="88.403"/>
	<rect x="381.77" fill="#757C82" width="1.757" height="88.403"/>
	<rect x="375.302" fill="#757C82" width="1.756" height="88.403"/>
	<rect x="336.476" y="64.263" fill="#757C82" width="1.756" height="24.141"/>
	<rect x="330.006" y="64.263" fill="#757C82" width="1.757" height="24.141"/>
	<rect x="323.533" y="64.263" fill="#757C82" width="1.757" height="24.141"/>
	<rect x="291.181" fill="#757C82" width="1.758" height="88.403"/>
	<rect x="265.298" fill="#757C82" width="1.757" height="88.403"/>
	<rect x="258.826" fill="#757C82" width="1.757" height="88.403"/>
	<rect x="32.353" y="64.263" fill="#757C82" width="1.754" height="24.141"/>
	<rect x="25.884" y="64.263" fill="#757C82" width="1.754" height="24.141"/>
	<rect x="19.411" y="64.263" fill="#757C82" width="1.755" height="24.141"/>
	<rect x="122.943" fill="#757C82" width="1.754" height="24.141"/>
	<rect x="116.475" fill="#757C82" width="1.754" height="24.141"/>
	<rect x="110.002" fill="#757C82" width="1.754" height="24.141"/>
	<rect x="336.476" fill="#757C82" width="1.756" height="24.139"/>
	<rect x="330.006" fill="#757C82" width="1.757" height="24.139"/>
	<rect x="323.533" fill="#757C82" width="1.757" height="24.139"/>
	<rect x="161.769" fill="#757C82" width="1.755" height="24.139"/>
	<rect x="155.296" fill="#757C82" width="1.754" height="24.139"/>
	<rect x="148.827" fill="#757C82" width="1.754" height="24.139"/>
	<rect x="32.353" fill="#757C82" width="1.754" height="24.139"/>
	<rect x="25.884" fill="#757C82" width="1.754" height="24.139"/>
	<rect x="19.411" fill="#757C82" width="1.755" height="24.139"/>
	<rect x="226.475" fill="#757C82" width="1.755" height="150.816"/>
	<rect x="220.005" fill="#757C82" width="1.755" height="150.816"/>
	<rect x="213.533" fill="#757C82" width="1.754" height="150.816"/>
	<rect x="207.062" y="126.675" fill="#757C82" width="1.755" height="24.142"/>
	<rect x="200.591" y="126.675" fill="#757C82" width="1.755" height="24.142"/>
	<rect x="194.122" y="126.675" fill="#757C82" width="1.754" height="24.142"/>
	<rect x="187.651" fill="#757C82" width="1.753" height="150.816"/>
	<rect x="181.18" fill="#757C82" width="1.755" height="150.816"/>
	<rect x="174.71" fill="#757C82" width="1.754" height="150.816"/>
	<rect x="97.061" fill="#757C82" width="1.754" height="150.816"/>
	<rect x="90.59" fill="#757C82" width="1.755" height="150.816"/>
	<rect x="84.121" fill="#757C82" width="1.754" height="150.816"/>
	<rect x="77.648" y="126.675" fill="#757C82" width="1.754" height="24.142"/>
	<rect x="64.707" y="126.675" fill="#757C82" width="1.754" height="24.142"/>
</g>
</svg>
