<?xml version="1.0" encoding="utf-8"?>
<!-- Generator: Adobe Illustrator 15.0.0, SVG Export Plug-In . SVG Version: 6.00 Build 0)  -->
<!DOCTYPE svg PUBLIC "-//W3C//DTD SVG 1.1//EN" "http://www.w3.org/Graphics/SVG/1.1/DTD/svg11.dtd">
<svg version="1.1" id="Layer_1" xmlns="http://www.w3.org/2000/svg" xmlns:xlink="http://www.w3.org/1999/xlink" x="0px" y="0px"
	 width="891.66px" height="273.783px" viewBox="0 0 891.66 273.783" enable-background="new 0 0 891.66 273.783"
	 xml:space="preserve">
<g>
	<polygon fill="#495965" points="867.388,268.18 870.441,268.18 870.441,5.608 867.388,5.608 867.388,268.18 	"/>
	<polygon fill="#495965" points="856.116,268.18 859.176,268.18 859.176,5.608 856.116,5.608 856.116,268.18 	"/>
	<polygon fill="#495965" points="844.854,268.18 847.907,268.18 847.907,5.608 844.854,5.608 844.854,268.18 	"/>
	<polygon fill="#495965" points="811.053,268.18 814.111,268.18 814.111,5.608 811.053,5.608 811.053,268.18 	"/>
	<polygon fill="#495965" points="799.792,268.18 802.844,268.18 802.844,5.608 799.792,5.608 799.792,268.18 	"/>
	<polygon fill="#495965" points="788.517,268.18 791.579,268.18 791.579,5.608 788.517,5.608 788.517,268.18 	"/>
	<polygon fill="#495965" points="765.996,268.18 769.05,268.18 769.05,5.608 765.996,5.608 765.996,268.18 	"/>
	<polygon fill="#495965" points="754.72,268.18 757.779,268.18 757.779,5.608 754.72,5.608 754.72,268.18 	"/>
	<polygon fill="#495965" points="743.455,268.18 746.515,268.18 746.515,5.608 743.455,5.608 743.455,268.18 	"/>
	<polygon fill="#495965" points="720.926,268.18 723.98,268.18 723.98,5.608 720.926,5.608 720.926,268.18 	"/>
	<polygon fill="#495965" points="709.664,268.18 712.717,268.18 712.717,5.608 709.664,5.608 709.664,268.18 	"/>
	<polygon fill="#495965" points="698.394,268.18 701.448,268.18 701.448,5.608 698.394,5.608 698.394,268.18 	"/>
	<polygon fill="#495965" points="653.328,268.18 656.38,268.18 656.38,5.608 653.328,5.608 653.328,268.18 	"/>
	<polygon fill="#495965" points="642.062,268.18 645.119,268.18 645.119,5.608 642.062,5.608 642.062,268.18 	"/>
	<polygon fill="#495965" points="630.798,268.18 633.85,268.18 633.85,5.608 630.798,5.608 630.798,268.18 	"/>
	<polygon fill="#495965" points="878.651,5.608 878.651,159.52 881.713,159.52 881.713,5.608 878.651,5.608 	"/>
	<polygon fill="#495965" points="833.591,159.52 836.646,159.52 836.646,5.608 833.591,5.608 833.591,159.52 	"/>
	<polygon fill="#495965" points="822.324,159.52 825.374,159.52 825.374,5.608 822.324,5.608 822.324,159.52 	"/>
	<polygon fill="#495965" points="687.132,159.52 690.184,159.52 690.184,5.608 687.132,5.608 687.132,159.52 	"/>
	<polygon fill="#495965" points="675.861,159.52 678.912,159.52 678.912,5.608 675.861,5.608 675.861,159.52 	"/>
	<polygon fill="#495965" points="664.601,159.52 667.652,159.52 667.652,5.608 664.601,5.608 664.601,159.52 	"/>
	<polygon fill="#495965" points="595.782,269.392 601.271,269.392 601.271,224.933 595.782,224.933 595.782,269.392 	"/>
	<polygon fill="#495965" points="584.518,269.392 590.009,269.392 590.009,224.933 584.518,224.933 584.518,269.392 	"/>
	<polygon fill="#495965" points="573.247,269.392 578.736,269.392 578.736,224.933 573.247,224.933 573.247,269.392 	"/>
	<polygon fill="#495965" points="561.987,269.392 567.469,269.392 567.469,4.392 561.987,4.392 561.987,269.392 	"/>
	<polygon fill="#495965" points="550.716,269.392 556.204,269.392 556.204,4.392 550.716,4.392 550.716,269.392 	"/>
	<polygon fill="#495965" points="539.455,269.392 544.941,269.392 544.941,4.392 539.455,4.392 539.455,269.392 	"/>
	<polygon fill="#495965" points="505.659,269.392 511.147,269.392 511.147,4.392 505.659,4.392 505.659,269.392 	"/>
	<polygon fill="#495965" points="494.387,269.392 499.874,269.392 499.874,4.392 494.387,4.392 494.387,269.392 	"/>
	<polygon fill="#495965" points="483.122,269.392 488.609,269.392 488.609,4.392 483.122,4.392 483.122,269.392 	"/>
	<polygon fill="#495965" points="449.327,269.392 454.811,269.392 454.811,4.392 449.327,4.392 449.327,269.392 	"/>
	<polygon fill="#495965" points="438.059,269.392 443.547,269.392 443.547,4.392 438.059,4.392 438.059,269.392 	"/>
	<polygon fill="#495965" points="426.796,269.392 432.277,269.392 432.277,4.392 426.796,4.392 426.796,269.392 	"/>
	<polygon fill="#495965" points="257.802,269.392 263.284,269.392 263.284,4.392 257.802,4.392 257.802,269.392 	"/>
	<polygon fill="#495965" points="246.536,269.392 252.023,269.392 252.023,4.392 246.536,4.392 246.536,269.392 	"/>
	<polygon fill="#495965" points="235.271,269.392 240.754,269.392 240.754,4.392 235.271,4.392 235.271,269.392 	"/>
	<polygon fill="#495965" points="133.872,269.392 139.362,269.392 139.362,224.933 133.872,224.933 133.872,269.392 	"/>
	<polygon fill="#495965" points="111.34,269.392 116.828,269.392 116.828,4.392 111.34,4.392 111.34,269.392 	"/>
	<polygon fill="#495965" points="100.077,269.392 105.562,269.392 105.562,4.392 100.077,4.392 100.077,269.392 	"/>
	<polygon fill="#495965" points="88.809,269.392 94.297,269.392 94.297,4.392 88.809,4.392 88.809,269.392 	"/>
	<polygon fill="#495965" points="32.482,269.392 37.969,269.392 37.969,4.392 32.482,4.392 32.482,269.392 	"/>
	<polygon fill="#495965" points="21.215,269.392 26.699,269.392 26.699,4.392 21.215,4.392 21.215,269.392 	"/>
	<polygon fill="#495965" points="9.947,269.392 15.436,269.392 15.436,4.392 9.947,4.392 9.947,269.392 	"/>
	<polygon fill="#495965" points="595.782,160.737 601.271,160.737 601.271,116.272 595.782,116.272 595.782,160.737 	"/>
	<polygon fill="#495965" points="584.518,160.737 590.009,160.737 590.009,116.272 584.518,116.272 584.518,160.737 	"/>
	<polygon fill="#495965" points="573.247,160.737 578.736,160.737 578.736,116.272 573.247,116.272 573.247,160.737 	"/>
	<polygon fill="#495965" points="516.924,160.737 522.404,160.737 522.404,4.392 516.924,4.392 516.924,160.737 	"/>
	<polygon fill="#495965" points="471.862,160.737 477.342,160.737 477.342,4.392 471.862,4.392 471.862,160.737 	"/>
	<polygon fill="#495965" points="460.592,160.737 466.077,160.737 466.077,4.392 460.592,4.392 460.592,160.737 	"/>
	<polygon fill="#495965" points="66.277,160.737 71.757,160.737 71.757,116.272 66.277,116.272 66.277,160.737 	"/>
	<polygon fill="#495965" points="55.015,160.737 60.5,160.737 60.5,116.272 55.015,116.272 55.015,160.737 	"/>
	<polygon fill="#495965" points="43.747,160.737 49.229,160.737 49.229,116.272 43.747,116.272 43.747,160.737 	"/>
	<polygon fill="#495965" points="223.999,48.853 229.487,48.853 229.487,4.392 223.999,4.392 223.999,48.853 	"/>
	<polygon fill="#495965" points="212.738,48.853 218.222,48.853 218.222,4.392 212.738,4.392 212.738,48.853 	"/>
	<polygon fill="#495965" points="201.469,48.853 206.954,48.853 206.954,4.392 201.469,4.392 201.469,48.853 	"/>
	<polygon fill="#495965" points="595.782,48.847 601.271,48.847 601.271,4.392 595.782,4.392 595.782,48.847 	"/>
	<polygon fill="#495965" points="584.518,48.847 590.009,48.847 590.009,4.392 584.518,4.392 584.518,48.847 	"/>
	<polygon fill="#495965" points="573.247,48.847 578.736,48.847 578.736,4.392 573.247,4.392 573.247,48.847 	"/>
	<polygon fill="#495965" points="291.6,48.847 297.089,48.847 297.089,4.392 291.6,4.392 291.6,48.847 	"/>
	<polygon fill="#495965" points="280.335,48.847 285.82,48.847 285.82,4.392 280.335,4.392 280.335,48.847 	"/>
	<polygon fill="#495965" points="269.067,48.847 274.554,48.847 274.554,4.392 269.067,4.392 269.067,48.847 	"/>
	<polygon fill="#495965" points="66.277,48.847 71.757,48.847 71.757,4.392 66.277,4.392 66.277,48.847 	"/>
	<polygon fill="#495965" points="55.015,48.847 60.5,48.847 60.5,4.392 55.015,4.392 55.015,48.847 	"/>
	<polygon fill="#495965" points="43.747,48.847 49.229,48.847 49.229,4.392 43.747,4.392 43.747,48.847 	"/>
	<polygon fill="#495965" points="359.196,269.392 364.685,269.392 364.685,224.933 359.196,224.933 359.196,269.392 	"/>
	<polygon fill="#495965" points="404.262,269.392 409.75,269.392 409.75,4.392 404.262,4.392 404.262,269.392 	"/>
	<polygon fill="#495965" points="393,269.392 398.488,269.392 398.488,4.392 393,4.392 393,269.392 	"/>
	<polygon fill="#495965" points="347.929,269.392 353.417,269.392 353.417,224.933 347.929,224.933 347.929,269.392 	"/>
	<polygon fill="#495965" points="381.728,269.392 387.217,269.392 387.217,4.392 381.728,4.392 381.728,269.392 	"/>
	<polygon fill="#495965" points="370.461,269.392 375.951,269.392 375.951,224.933 370.461,224.933 370.461,269.392 	"/>
	<polygon fill="#495965" points="314.139,269.392 319.619,269.392 319.619,4.392 314.139,4.392 314.139,269.392 	"/>
	<polygon fill="#495965" points="336.665,269.392 342.153,269.392 342.153,4.392 336.665,4.392 336.665,269.392 	"/>
	<polygon fill="#495965" points="156.409,269.392 161.897,269.392 161.897,4.392 156.409,4.392 156.409,269.392 	"/>
	<polygon fill="#495965" points="178.935,269.392 184.425,269.392 184.425,4.392 178.935,4.392 178.935,269.392 	"/>
	<polygon fill="#495965" points="145.143,269.392 150.629,269.392 150.629,224.933 145.143,224.933 145.143,269.392 	"/>
	<polygon fill="#495965" points="325.4,269.392 330.882,269.392 330.882,4.392 325.4,4.392 325.4,269.392 	"/>
	<polygon fill="#495965" points="167.675,269.392 173.16,269.392 173.16,4.392 167.675,4.392 167.675,269.392 	"/>
	<polygon fill="#495965" points="122.612,269.392 128.093,269.392 128.093,224.933 122.612,224.933 122.612,269.392 	"/>
</g>
</svg>
