<?xml version="1.0" encoding="utf-8"?>
<!-- Generator: Adobe Illustrator 15.0.0, SVG Export Plug-In . SVG Version: 6.00 Build 0)  -->
<!DOCTYPE svg PUBLIC "-//W3C//DTD SVG 1.1//EN" "http://www.w3.org/Graphics/SVG/1.1/DTD/svg11.dtd">
<svg version="1.1" id="Layer_1" xmlns="http://www.w3.org/2000/svg" xmlns:xlink="http://www.w3.org/1999/xlink" x="0px" y="0px"
	 width="610.792px" height="184.284px" viewBox="0 0 610.792 184.284" enable-background="new 0 0 610.792 184.284"
	 xml:space="preserve">
<g>
	<defs>
		<rect id="SVGID_1_" width="610.792" height="184.284"/>
	</defs>
	<clipPath id="SVGID_2_">
		<use xlink:href="#SVGID_1_"  overflow="visible"/>
	</clipPath>
	<g clip-path="url(#SVGID_2_)">
		<defs>
			<rect id="SVGID_3_" x="-0.16" y="-1.716" width="612" height="186"/>
		</defs>
		<clipPath id="SVGID_4_">
			<use xlink:href="#SVGID_3_"  overflow="visible"/>
		</clipPath>
		<path clip-path="url(#SVGID_4_)" fill="none" stroke="#000000" stroke-width="2.1447" d="M87.886,154.786v29.498 M72.072,0
			v184.284 M64.164,0v184.284 M56.259,0v184.284 M198.578,0v29.496 M190.67,0v29.496 M182.765,0v29.496 M174.856,0v184.284
			 M166.951,0v184.284 M159.045,0v184.284 M151.137,0v29.498 M143.232,0v29.498 M135.324,0v29.498 M499.028,0v184.284 M491.123,0
			v184.284 M483.214,0v184.284 M475.308,0v108.02 M467.401,0v108.02 M459.495,0v108.02 M451.586,0v184.284 M443.681,0v184.284
			 M435.773,0v184.284 M609.719,0v108.02 M601.814,0v184.284 M593.906,0v184.284 M586,0v184.284 M578.092,0v108.02 M570.187,0
			v108.02 M562.279,0v184.284 M554.374,0v184.284 M546.468,0v184.284 M530.655,0v184.284 M522.747,0v184.284 M514.841,0v184.284
			 M356.708,0v108.02 M348.803,0v184.284 M340.895,0v184.284 M332.989,0v184.284 M325.082,0v108.02 M317.175,0v108.02 M309.27,0
			v184.284 M301.362,0v184.284 M293.457,0v184.284 M412.054,0v29.496 M404.149,0v29.496 M396.241,0v29.496 M412.054,154.786v29.498
			 M412.054,78.522v29.498 M404.149,154.786v29.498 M404.149,78.522v29.498 M396.241,154.786v29.498 M396.241,78.522v29.498
			 M388.335,0v184.284 M380.427,0v184.284 M372.522,0v184.284 M40.445,0v29.496 M32.54,0v29.496 M24.632,0v29.496 M16.726,0v184.284
			 M8.818,0v184.284 M0.913,0v184.284 M40.445,78.522v29.498 M32.54,78.522v29.498 M24.632,78.522v29.498"/>
		<path clip-path="url(#SVGID_4_)" fill="none" stroke="#000000" stroke-width="2.1447" d="M277.643,0v184.284 M269.738,0v184.284
			 M261.83,0v184.284 M253.924,154.786v29.498 M238.111,154.786v29.498 M246.016,154.786v29.498 M230.203,0v184.284 M222.297,0
			v184.284 M214.392,0v184.284 M119.51,0v184.284 M111.605,0v184.284 M103.699,0v184.284 M95.792,154.786v29.498 M79.978,154.786
			v29.498"/>
	</g>
</g>
</svg>
